<svg width="800" height="600" viewBox="0 0 800 600" fill="none" xmlns="http://www.w3.org/2000/svg">
  <rect width="800" height="600" fill="#0b0c10"/>
  <g opacity="0.15">
    <circle cx="120" cy="80" r="3" fill="#7c5cff"/>
    <circle cx="250" cy="120" r="3" fill="#7c5cff"/>
    <circle cx="380" cy="90" r="3" fill="#7c5cff"/>
    <circle cx="520" cy="140" r="3" fill="#7c5cff"/>
    <circle cx="680" cy="100" r="3" fill="#7c5cff"/>
    <line x1="120" y1="80" x2="250" y2="120" stroke="#7c5cff" stroke-width="1"/>
    <line x1="250" y1="120" x2="380" y2="90" stroke="#7c5cff" stroke-width="1"/>
    <line x1="380" y1="90" x2="520" y2="140" stroke="#7c5cff" stroke-width="1"/>
    <line x1="520" y1="140" x2="680" y2="100" stroke="#7c5cff" stroke-width="1"/>
  </g>
  <g opacity="0.7">
    <circle cx="400" cy="300" r="150" fill="none" stroke="#7c5cff" stroke-width="2" opacity="0.3"/>
    <circle cx="400" cy="300" r="100" fill="none" stroke="#7c5cff" stroke-width="2" opacity="0.4"/>
    <circle cx="400" cy="300" r="50" fill="none" stroke="#7c5cff" stroke-width="3" opacity="0.6"/>
    <circle cx="400" cy="300" r="15" fill="#7c5cff" opacity="0.8"/>
    <line x1="400" y1="140" x2="400" y2="270" stroke="#7c5cff" stroke-width="2" opacity="0.5"/>
    <line x1="400" y1="330" x2="400" y2="460" stroke="#7c5cff" stroke-width="2" opacity="0.5"/>
    <line x1="240" y1="300" x2="370" y2="300" stroke="#7c5cff" stroke-width="2" opacity="0.5"/>
    <line x1="430" y1="300" x2="560" y2="300" stroke="#7c5cff" stroke-width="2" opacity="0.5"/>
  </g>
  <g opacity="0.6">
    <path d="M 250 150 L 370 270" stroke="#ef4444" stroke-width="2" stroke-dasharray="5,5"/>
    <path d="M 550 150 L 430 270" stroke="#ef4444" stroke-width="2" stroke-dasharray="5,5"/>
    <path d="M 250 450 L 370 330" stroke="#ef4444" stroke-width="2" stroke-dasharray="5,5"/>
    <path d="M 550 450 L 430 330" stroke="#ef4444" stroke-width="2" stroke-dasharray="5,5"/>
  </g>
  <defs>
    <radialGradient id="redglow" cx="50%" cy="50%" r="50%">
      <stop offset="0%" style="stop-color:#ef4444;stop-opacity:0.2" />
      <stop offset="100%" style="stop-color:#7c5cff;stop-opacity:0" />
    </radialGradient>
  </defs>
  <circle cx="400" cy="300" r="180" fill="url(#redglow)"/>
</svg>