<svg width="800" height="600" viewBox="0 0 800 600" fill="none" xmlns="http://www.w3.org/2000/svg">
  <rect width="800" height="600" fill="#0b0c10"/>
  <pattern id="grid" width="40" height="40" patternUnits="userSpaceOnUse">
    <path d="M 40 0 L 0 0 0 40" fill="none" stroke="#1a1d24" stroke-width="1"/>
  </pattern>
  <rect width="800" height="600" fill="url(#grid)"/>
  <g opacity="0.6">
    <circle cx="150" cy="300" r="40" fill="#111317" stroke="#7c5cff" stroke-width="3"/>
    <circle cx="300" cy="200" r="35" fill="#111317" stroke="#7c5cff" stroke-width="3"/>
    <circle cx="300" cy="400" r="35" fill="#111317" stroke="#7c5cff" stroke-width="3"/>
    <circle cx="450" cy="300" r="40" fill="#111317" stroke="#7c5cff" stroke-width="3"/>
    <circle cx="600" cy="250" r="35" fill="#111317" stroke="#7c5cff" stroke-width="3"/>
    <circle cx="600" cy="350" r="35" fill="#111317" stroke="#7c5cff" stroke-width="3"/>
    <line x1="190" y1="300" x2="265" y2="220" stroke="#7c5cff" stroke-width="2" opacity="0.5"/>
    <line x1="190" y1="300" x2="265" y2="380" stroke="#7c5cff" stroke-width="2" opacity="0.5"/>
    <line x1="335" y1="210" x2="410" y2="290" stroke="#7c5cff" stroke-width="2" opacity="0.5"/>
    <line x1="335" y1="390" x2="410" y2="310" stroke="#7c5cff" stroke-width="2" opacity="0.5"/>
    <line x1="490" y1="295" x2="565" y2="260" stroke="#7c5cff" stroke-width="2" opacity="0.5"/>
    <line x1="490" y1="305" x2="565" y2="340" stroke="#7c5cff" stroke-width="2" opacity="0.5"/>
  </g>
  <g opacity="0.8">
    <path d="M 300 180 L 290 200 L 310 200 Z" fill="#7c5cff"/>
    <path d="M 300 380 L 290 400 L 310 400 Z" fill="#7c5cff"/>
    <path d="M 450 280 L 440 300 L 460 300 Z" fill="#7c5cff"/>
  </g>
  <defs>
    <radialGradient id="glow" cx="50%" cy="50%" r="50%">
      <stop offset="0%" style="stop-color:#7c5cff;stop-opacity:0.3" />
      <stop offset="100%" style="stop-color:#7c5cff;stop-opacity:0" />
    </radialGradient>
  </defs>
  <circle cx="450" cy="300" r="120" fill="url(#glow)"/>
</svg>