<svg xmlns="http://www.w3.org/2000/svg" viewBox="0 0 32 32">
  <defs>
    <linearGradient id="grad" x1="0%" y1="0%" x2="100%" y2="100%">
      <stop offset="0%" style="stop-color:#7c5cff;stop-opacity:1" />
      <stop offset="100%" style="stop-color:#6b46ff;stop-opacity:1" />
    </linearGradient>
  </defs>
  
  <!-- Background circle -->
  <circle cx="16" cy="16" r="16" fill="#0b0c10"/>
  
  <!-- Shield shape representing security -->
  <path d="M16 4l8 3v7c0 6-8 10-8 10s-8-4-8-10V7l8-3z" fill="url(#grad)" stroke="none"/>
  
  <!-- Inner elements representing DevSecOps -->
  <!-- Code brackets -->
  <path d="M11 12l-2 2 2 2M21 12l2 2-2 2" stroke="#e6e6e6" stroke-width="1.5" fill="none" stroke-linecap="round"/>
  
  <!-- Gear/ops symbol in center -->
  <circle cx="16" cy="16" r="2" fill="#e6e6e6"/>
  <path d="M16 12v1.5M16 18.5V20M20 16h-1.5M13.5 16H12M18.5 13.5l-1 1M14.5 17.5l-1 1M18.5 18.5l-1-1M14.5 14.5l-1-1" stroke="#e6e6e6" stroke-width="1" stroke-linecap="round"/>
</svg>